<svg id="attachment" xmlns="http://www.w3.org/2000/svg" width="20.015" height="20.015" viewBox="0 0 20.015 20.015">
    <path id="Path_2755" data-name="Path 2755" d="M0,0H20.015V20.015H0Z" fill="none" />
    <path id="Path_2756" data-name="Path 2756" d="M14.923,5.17V14.76a3.336,3.336,0,1,1-6.672,0V4.336a2.085,2.085,0,1,1,4.17,0v8.757a.834.834,0,1,1-1.668,0V5.17H9.5v7.923a2.085,2.085,0,1,0,4.17,0V4.336A3.336,3.336,0,1,0,7,4.336V14.76a4.587,4.587,0,1,0,9.174,0V5.17Z" transform="translate(-1.162 -0.166)" fill="#888" />
</svg>
