<svg xmlns="http://www.w3.org/2000/svg" width="10.416" height="16" viewBox="0 0 10.416 16">
    <path id="rupee" d="M223.768,66.024a3.89,3.89,0,0,0-.737-1.635h2.988a4.783,4.783,0,0,0,.093-.953,4.713,4.713,0,0,0-.093-.936H215.793c-.016.1-.031.19-.042.287l0,.024a6.823,6.823,0,0,0-.048.8,6.7,6.7,0,0,0,.093,1.128h1.993q2.438,0,3.094,1.284h-5.087a4.853,4.853,0,0,0-.093.936,4.792,4.792,0,0,0,.093.951h3.92v0h1.329a2.236,2.236,0,0,1-1.185,1.421,5.282,5.282,0,0,1-2.452.49h-1.295a.362.362,0,0,0-.262.108.343.343,0,0,0-.108.256v1.443a.33.33,0,0,0,.1.251q2.216,2.315,5.749,6.486a.34.34,0,0,0,.287.137h2.253a.338.338,0,0,0,.335-.2.309.309,0,0,0-.046-.388q-3.368-4.068-5.3-6.091a5.932,5.932,0,0,0,3.187-1.247,4.242,4.242,0,0,0,1.49-2.659h2.218a4.916,4.916,0,0,0,.093-.951,4.713,4.713,0,0,0-.093-.936Z" transform="translate(-215.7 -62.5)" />
</svg>
