<svg id="emoji" xmlns="http://www.w3.org/2000/svg" width="22.685" height="22.685" viewBox="0 0 22.685 22.685">
    <g id="Group_9921" data-name="Group 9921">
        <path id="Path_2864" data-name="Path 2864" d="M13.331,2A11.342,11.342,0,1,0,24.685,13.342,11.337,11.337,0,0,0,13.331,2ZM9.372,8.805a1.7,1.7,0,1,1-1.7,1.7A1.7,1.7,0,0,1,9.372,8.805Zm3.97,11.342a6.19,6.19,0,0,1-5.671-4.537H19.013A6.19,6.19,0,0,1,13.342,20.148Zm3.97-7.94a1.7,1.7,0,1,1,1.7-1.7A1.7,1.7,0,0,1,17.312,12.208Z" transform="translate(-2 -2)" fill="#888" />
    </g>
</svg>
